<mxfile host="app.diagrams.net" modified="2022-05-27T06:57:15.590Z" agent="5.0 (Windows NT 10.0; WOW64) AppleWebKit/537.36 (KHTML, like Gecko) Chrome/77.0.3865.120 Safari/537.36 Core/1.77.103.400 QQBrowser/10.9.4624.400" etag="N-ZZWf5QhLyzblrYkHqs" version="18.1.3" type="github">
  <diagram name="Page-1" id="c9db0220-8083-56f3-ca83-edcdcd058819">
    <mxGraphModel dx="1677" dy="982" grid="1" gridSize="10" guides="1" tooltips="1" connect="1" arrows="1" fold="1" page="1" pageScale="1.5" pageWidth="826" pageHeight="1169" background="none" math="0" shadow="0">
      <root>
        <mxCell id="0" style=";html=1;" />
        <mxCell id="1" style=";html=1;" parent="0" />
        <mxCell id="cLdU_ocRs2DsG-mYy8hx-1" value="" style="whiteSpace=wrap;html=1;aspect=fixed;" vertex="1" parent="1">
          <mxGeometry width="1530" height="1530" as="geometry" />
        </mxCell>
        <mxCell id="cLdU_ocRs2DsG-mYy8hx-4" value="" style="rounded=1;whiteSpace=wrap;html=1;fillColor=#fff2cc;strokeColor=#d6b656;" vertex="1" parent="1">
          <mxGeometry width="1530" height="220" as="geometry" />
        </mxCell>
        <mxCell id="cLdU_ocRs2DsG-mYy8hx-5" value="" style="rounded=0;whiteSpace=wrap;html=1;" vertex="1" parent="1">
          <mxGeometry y="220" width="370" height="140" as="geometry" />
        </mxCell>
        <mxCell id="cLdU_ocRs2DsG-mYy8hx-7" value="" style="rounded=0;whiteSpace=wrap;html=1;" vertex="1" parent="1">
          <mxGeometry x="370" y="220" width="1160" height="1310" as="geometry" />
        </mxCell>
      </root>
    </mxGraphModel>
  </diagram>
</mxfile>
